<svg width="24" height="24" viewBox="0 0 24 24" fill="none" xmlns="http://www.w3.org/2000/svg">
<path d="M13.4141 24H9.57068C8.92871 24 8.40649 23.4778 8.40649 22.8358V14.1669H6.16418C5.52222 14.1669 5 13.6445 5 13.0027V9.28803C5 8.64606 5.52222 8.12384 6.16418 8.12384H8.40649V6.26367C8.40649 4.41925 8.98566 2.85004 10.0812 1.72595C11.1816 0.596741 12.7195 0 14.5286 0L17.4598 0.00476072C18.1006 0.00585938 18.6219 0.528076 18.6219 1.16895V4.61792C18.6219 5.25989 18.0999 5.7821 17.4581 5.7821L15.4846 5.78284C14.8828 5.78284 14.7295 5.9035 14.6967 5.94049C14.6427 6.00183 14.5784 6.17523 14.5784 6.65405V8.12366H17.3098C17.5154 8.12366 17.7147 8.17438 17.8859 8.26996C18.2552 8.47632 18.4848 8.86652 18.4848 9.28821L18.4833 13.0029C18.4833 13.6445 17.9611 14.1667 17.3192 14.1667H14.5784V22.8358C14.5784 23.4778 14.056 24 13.4141 24ZM9.81348 22.593H13.1713V13.537C13.1713 13.1083 13.5201 12.7597 13.9485 12.7597H17.0764L17.0776 9.53082H13.9484C13.5199 9.53082 13.1713 9.18219 13.1713 8.75354V6.65405C13.1713 6.10437 13.2271 5.47925 13.642 5.0094C14.1434 4.44141 14.9335 4.37585 15.4843 4.37585L17.215 4.37512V1.41138L14.5275 1.40698C11.6202 1.40698 9.81348 3.26807 9.81348 6.26367V8.75354C9.81348 9.18201 9.46484 9.53082 9.03638 9.53082H6.40698V12.7597H9.03638C9.46484 12.7597 9.81348 13.1083 9.81348 13.537V22.593Z" fill="#C8CECB"/>
</svg>
