<svg width="18" height="18" viewBox="0 0 18 18" fill="none" xmlns="http://www.w3.org/2000/svg">
<path d="M7.361 1.72553C8.03157 0.312847 9.96908 0.312845 10.6396 1.72552L11.7986 4.167C12.0649 4.72797 12.5796 5.1168 13.175 5.20675L15.7664 5.59826C17.2659 5.82479 17.8646 7.74064 16.7796 8.84025L14.9044 10.7407C14.4736 11.1773 14.277 11.8065 14.3787 12.423L14.8213 15.1065C15.0775 16.6592 13.51 17.8432 12.1689 17.1101L9.85102 15.8432C9.31845 15.5521 8.6822 15.5521 8.14964 15.8432L5.8318 17.1101C4.49065 17.8432 2.92318 16.6592 3.17931 15.1065L3.62198 12.423C3.72369 11.8065 3.52709 11.1773 3.09623 10.7407L1.22105 8.84025C0.136047 7.74064 0.734766 5.82479 2.23421 5.59826L4.82564 5.20675C5.42107 5.1168 5.9358 4.72797 6.20208 4.167L7.361 1.72553Z" fill="#FFC212"/>
</svg>
